<?xml version="1.0" standalone="no"?>
<!DOCTYPE svg PUBLIC "-//W3C//DTD SVG 20010904//EN"
 "http://www.w3.org/TR/2001/REC-SVG-20010904/DTD/svg10.dtd">
<svg version="1.0" xmlns="http://www.w3.org/2000/svg"
 width="1100.000000pt" height="1101.000000pt" viewBox="0 0 1100.000000 1101.000000"
 preserveAspectRatio="xMidYMid meet">

<g transform="translate(0.000000,1101.000000) scale(0.100000,-0.100000)"
fill="#000000" stroke="none">
<path d="M5235 10993 c-590 -35 -1082 -131 -1585 -311 -613 -219 -1165 -535
-1680 -962 -161 -134 -556 -529 -690 -690 -675 -815 -1094 -1765 -1229 -2787
-73 -550 -67 -1055 18 -1610 134 -874 510 -1751 1050 -2453 599 -777 1357
-1368 2231 -1738 670 -283 1314 -417 2059 -429 479 -8 850 29 1296 129 872
195 1655 587 2364 1185 149 125 478 455 604 603 220 262 456 596 600 851 357
633 585 1312 672 2004 26 205 45 450 45 571 l0 115 -35 33 c-35 33 -35 34 -35
119 0 78 2 88 27 117 25 30 26 37 25 140 -2 236 -60 622 -147 966 -300 1199
-993 2254 -1980 3015 -783 604 -1695 977 -2685 1099 -279 34 -676 48 -925 33z
m-247 -280 c-10 -20 -27 -60 -32 -73 -3 -8 -35 -60 -70 -115 -36 -55 -66 -107
-66 -115 0 -8 -8 -25 -18 -37 -14 -18 -43 -27 -146 -47 -71 -14 -130 -27 -132
-28 -1 -2 1 -88 6 -193 l8 -189 -43 -68 c-24 -37 -52 -82 -61 -100 l-17 -33
-17 55 c-31 98 -90 296 -90 302 0 3 23 11 50 18 28 7 52 16 55 20 9 14 -38
150 -51 150 -7 0 -53 -11 -101 -24 -48 -14 -135 -37 -192 -53 -57 -15 -106
-33 -108 -40 -4 -11 34 -153 42 -153 2 0 14 4 27 9 75 27 75 27 96 -46 11 -38
25 -90 31 -118 6 -27 34 -126 62 -218 l51 -168 -29 -42 c-38 -54 -83 -131
-106 -182 -10 -22 -28 -53 -41 -70 -13 -16 -53 -85 -89 -151 l-67 -122 -83
-41 c-675 -337 -1240 -877 -1606 -1533 -80 -143 -204 -409 -235 -503 -9 -27
-35 -104 -57 -170 -56 -167 -83 -281 -118 -495 -53 -322 -70 -591 -53 -830 10
-129 9 -137 -11 -170 -11 -19 -24 -37 -28 -40 -4 -3 -19 -32 -33 -65 -15 -32
-30 -62 -34 -65 -12 -8 -35 -47 -87 -145 -26 -49 -58 -103 -70 -120 -12 -16
-44 -70 -70 -120 -26 -49 -68 -120 -92 -157 -23 -37 -43 -73 -43 -80 0 -8 -8
-25 -17 -38 -41 -58 -123 -193 -123 -202 0 -11 -39 -80 -51 -88 -3 -3 -34 -56
-68 -119 -35 -63 -76 -134 -93 -158 -16 -24 -38 -63 -49 -86 -10 -23 -39 -73
-64 -112 -25 -38 -58 -98 -74 -131 -45 -95 -49 -94 -98 21 -211 486 -349 1024
-409 1600 -24 231 -24 714 0 940 65 613 213 1178 436 1666 33 71 60 132 60
135 0 2 34 68 76 147 204 381 414 689 688 1012 64 75 452 462 532 531 712 611
1571 1025 2454 1185 303 55 476 78 468 62z m152 -1738 c0 -9 -109 -202 -144
-255 -20 -30 -36 -60 -36 -66 0 -11 -79 -142 -123 -204 -9 -13 -17 -30 -17
-38 0 -7 -20 -43 -44 -80 -24 -37 -54 -88 -67 -114 -19 -38 -34 -51 -71 -68
-26 -11 -51 -20 -57 -20 -6 0 -11 -20 -11 -45 0 -34 4 -45 16 -45 11 0 4 -21
-31 -87 -25 -47 -61 -109 -80 -137 -18 -28 -43 -73 -55 -101 -12 -27 -25 -52
-29 -55 -11 -8 -78 -118 -105 -175 -13 -27 -35 -67 -49 -87 -14 -20 -53 -88
-88 -150 -34 -62 -67 -120 -75 -128 -7 -8 -28 -44 -47 -80 -42 -79 -89 -160
-122 -208 -14 -20 -25 -43 -25 -51 0 -8 -10 -28 -23 -45 -13 -17 -39 -58 -57
-91 -19 -33 -37 -62 -41 -65 -4 -3 -14 -23 -23 -44 -9 -22 -32 -63 -50 -90
-18 -28 -52 -87 -76 -131 -24 -44 -57 -102 -75 -130 -18 -27 -40 -66 -50 -85
-21 -41 -24 -47 -67 -120 -31 -54 -34 -56 -178 -126 l-147 -72 -9 -103 -9
-104 -97 3 -98 2 0 -40 0 -40 79 0 c43 0 99 -3 124 -6 l47 -7 -21 -36 -20 -36
-104 3 -105 4 0 -36 0 -36 45 0 46 0 -7 -77 c-4 -49 -16 -97 -30 -128 -27 -56
-93 -167 -105 -175 -4 -3 -17 -28 -29 -55 -12 -28 -36 -73 -55 -100 -18 -28
-52 -86 -75 -130 -24 -44 -55 -98 -70 -120 -15 -22 -45 -72 -65 -110 -52 -97
-88 -159 -95 -165 -7 -5 -30 -49 -49 -90 -6 -14 -26 -49 -45 -78 l-33 -53 -18
43 c-10 24 -28 70 -41 103 -12 33 -39 103 -59 155 -61 158 -137 489 -172 740
-24 175 -24 615 0 790 57 414 161 774 318 1099 184 383 393 677 693 976 292
291 605 512 976 688 132 63 171 79 396 157 123 43 402 110 564 135 58 9 112
18 120 19 25 6 50 6 50 1z m-1835 -3195 c-3 -5 -14 -10 -23 -10 -15 0 -15 2
-2 10 20 13 33 13 25 0z m-65 -18 c0 -5 -16 -16 -35 -25 -19 -9 -35 -13 -35
-9 0 5 15 16 33 25 39 19 37 19 37 9z"/>
<path d="M3738 10067 c-47 -18 -89 -35 -92 -38 -4 -3 16 -59 43 -125 26 -65
54 -137 61 -159 7 -22 39 -105 70 -185 32 -80 64 -164 71 -187 7 -24 17 -43
23 -43 21 0 186 73 186 82 0 5 -17 53 -39 106 -63 160 -177 453 -201 520 -12
34 -25 62 -29 61 -3 0 -45 -14 -93 -32z"/>
<path d="M3430 9938 c-47 -22 -87 -41 -89 -43 -6 -6 30 -105 86 -239 30 -70
52 -131 49 -134 -4 -3 -6 0 -6 6 0 6 -24 46 -53 89 -29 43 -74 113 -100 156
-27 42 -50 77 -52 77 -15 0 -185 -93 -185 -101 0 -6 39 -66 87 -132 48 -67
110 -154 138 -194 50 -71 169 -239 192 -271 11 -15 25 -10 146 51 l134 68 -23
77 c-13 42 -51 151 -83 242 -33 91 -77 214 -98 274 -21 60 -42 110 -48 112 -5
1 -48 -16 -95 -38z"/>
<path d="M2850 9618 c-59 -16 -142 -79 -169 -128 -33 -58 -33 -128 -2 -188 33
-64 200 -311 241 -356 89 -99 221 -87 332 32 78 83 78 160 1 278 -112 171
-215 314 -241 332 -26 19 -96 43 -117 41 -5 -1 -26 -5 -45 -11z m149 -354 c72
-108 131 -200 131 -204 0 -15 -21 -22 -34 -11 -20 16 -266 386 -266 399 0 7 9
12 19 12 15 0 55 -53 150 -196z"/>
<path d="M2276 9383 c-40 -33 -46 -43 -46 -75 0 -38 0 -38 -41 -38 -32 0 -49
-8 -85 -37 -24 -21 -44 -40 -44 -44 0 -8 31 -15 112 -24 l57 -6 -25 -46 c-41
-78 -28 -133 53 -223 65 -73 110 -87 232 -72 149 19 162 16 206 -51 17 -26 17
-29 2 -45 -15 -15 -20 -12 -64 36 -27 29 -52 52 -56 52 -12 0 -137 -112 -137
-122 0 -13 85 -95 122 -118 89 -54 246 18 309 142 34 66 23 123 -35 195 -27
32 -67 71 -89 87 -42 28 -43 28 -152 22 -60 -3 -125 -9 -142 -12 -28 -5 -37
-2 -63 26 -34 36 -38 58 -14 67 11 4 27 -6 49 -33 l33 -39 29 25 c15 13 47 42
70 64 l42 39 -21 30 c-11 16 -39 42 -62 59 -36 26 -47 29 -91 25 -27 -3 -58
-8 -67 -12 -16 -6 -18 1 -18 79 0 47 -4 86 -9 86 -4 0 -29 -17 -55 -37z"/>
<path d="M1910 8823 c-58 -63 -106 -118 -108 -122 -4 -10 527 -501 542 -501
16 0 221 225 221 242 0 7 -24 35 -53 63 l-53 49 -47 -52 -47 -51 -54 49 -55
50 37 38 c20 21 37 43 37 49 0 6 -23 32 -52 57 l-52 46 -43 -42 -43 -42 -44
43 -44 43 39 41 c21 23 39 45 39 49 0 8 -97 102 -108 105 -4 1 -54 -50 -112
-114z"/>
<path d="M1628 8492 c-31 -42 -54 -80 -52 -84 2 -3 59 -49 126 -100 66 -51
157 -122 202 -157 45 -35 91 -70 104 -78 23 -16 30 -57 12 -68 -20 -13 -8 -31
44 -67 l54 -38 50 63 c60 76 72 98 72 134 0 51 -26 78 -205 214 -33 25 -120
92 -194 148 -74 57 -139 104 -145 107 -6 2 -36 -31 -68 -74z"/>
<path d="M1397 8173 c-62 -105 -87 -151 -87 -161 0 -5 37 -37 83 -70 154 -116
155 -117 32 -67 -61 24 -125 47 -142 51 -29 6 -33 3 -53 -36 -12 -23 -39 -71
-60 -106 l-39 -63 22 -16 c12 -9 81 -50 152 -92 72 -41 164 -96 205 -121 85
-52 261 -152 266 -152 5 0 84 138 84 148 0 8 -176 116 -260 160 -14 7 -29 18
-35 23 -11 12 44 -9 197 -75 59 -25 115 -46 123 -46 13 0 58 59 71 94 3 8 -46
53 -120 110 -116 90 -174 143 -116 105 14 -9 48 -28 75 -44 28 -15 78 -45 112
-66 34 -21 66 -40 72 -41 13 -4 103 141 95 153 -3 5 -24 19 -47 31 -39 19 -99
54 -367 213 -131 77 -216 125 -223 125 -3 0 -21 -26 -40 -57z"/>
<path d="M921 7228 c-17 -50 -29 -93 -27 -95 6 -6 322 -120 395 -142 136 -41
201 -77 173 -95 -7 -4 -208 62 -516 170 -38 13 -71 24 -72 24 -4 0 -64 -171
-64 -184 0 -8 12 -17 26 -20 14 -4 125 -42 247 -85 271 -96 322 -109 377 -92
56 16 99 57 126 117 30 67 38 114 30 169 -9 60 -47 102 -121 136 -53 24 -522
189 -537 189 -4 0 -20 -41 -37 -92z"/>
<path d="M742 6639 c-12 -51 -20 -94 -18 -96 8 -8 185 -52 336 -83 169 -35
240 -57 241 -73 1 -7 2 -23 2 -37 2 -21 9 -26 62 -36 33 -7 64 -9 68 -5 10 10
28 124 29 177 0 54 -18 81 -67 99 -61 23 -581 145 -615 145 -12 0 -22 -25 -38
-91z"/>
</g>
</svg>
